<svg version="1" xmlns="http://www.w3.org/2000/svg" width="1398.667" height="1398.667" viewBox="0 0 1049.000000 1049.000000"><path d="M686 97.1c-20.1 5.4-37.2 10-38 10.2-.8.2-4 1.1-7 2-3 .8-16.1 4.3-29 7.7-12.9 3.3-24.6 6.5-26 7-1.4.5-3.6 1.2-5 1.4-1.4.3-6.5 1.6-11.5 3-4.9 1.3-14.2 3.8-20.5 5.5-6.3 1.7-21.6 5.8-34 9.1-12.4 3.3-23.2 6.2-24 6.4-.8.2-9.9 2.7-20.3 5.5-10.3 2.8-19.7 5.3-21 5.5-1.2.3-4.4 1.1-7.2 2-2.7.8-10.2 2.8-16.5 4.5-19.5 5.1-41.2 10.9-58.7 15.6-32.7 8.9-93.2 25.2-104.3 28-.8.2-4 1-7 1.9-9.1 2.4-76.1 20.4-98 26.2-11.3 3-22.2 6-24.3 6.6-4 1.2-3.9.9-2.4 7.3.6 2.4 4.2 15.9 9.1 34 1.9 7.1 4.4 16.6 5.6 21 1.2 4.4 2.7 10.2 3.5 13 2.8 10.3 5.6 20.8 13.9 52 11.8 44.1 11.6 43.6 13.5 43 4.7-1.4 39-10.7 41.1-11.1 1.4-.3 5.6-1.4 9.5-2.5 3.8-1.1 8.1-2.2 9.5-2.5 1.4-.3 3.9-.9 5.5-1.4 3-1 46-12.5 65-17.5 5.5-1.4 13.8-3.7 18.5-5 4.7-1.3 14.8-4 22.5-6 7.7-2.1 22.2-6 32.3-8.7 10-2.7 19-5.1 20-5.3.9-.2 6.7-1.7 12.7-3.4 6.1-1.6 19.6-5.3 30-8.1 10.5-2.8 21.5-5.8 24.5-6.7 3-.8 6.5-1.7 7.7-1.9 1.2-.2 3.4-.9 4.8-1.4 1.4-.5 2.5-.7 2.5-.4 0 .2.8 0 1.8-.5 1.1-.6 3-1.2 4.3-1.5 1.3-.2 15.2-3.9 30.9-8.1 15.7-4.2 34.1-9.1 41-11 6.9-1.8 22.9-6 35.5-9.5 12.7-3.4 27.1-7.2 32-8.5 5-1.3 11.7-3.1 15-4.1 3.3-.9 6.7-1.7 7.5-1.9.8-.2 5.6-1.4 10.5-2.8 5-1.4 13.3-3.7 18.5-5.1 5.2-1.3 21.2-5.6 35.5-9.5 14.3-3.8 32.1-8.6 39.5-10.6 7.3-1.9 13.5-3.7 13.6-3.8.2-.1-.9-4.5-2.3-9.7-5.3-20.4-8.4-32-11.8-44.5-2-7.2-3.7-13.7-3.9-14.5-.2-.8-2.1-7.6-4.1-15-2-7.4-5-18.7-6.7-25-1.6-6.3-3.6-13.8-4.3-16.5-2-7.3-10.5-38.7-11-40.5-.2-.8-.4-2.1-.4-2.8-.1-.6-.4-1.2-.8-1.1-.5.1-17.2 4.5-37.3 10zM783 362.1c-5.8 1.6-16.6 4.5-24 6.5-7.4 2-18.2 4.9-24 6.4-5.8 1.5-13.2 3.5-16.5 4.4-7.3 2.1-33.5 9-37.5 10-.8.2-4.9 1.3-9 2.4-4.1 1.2-19.4 5.3-34 9.2-14.6 3.9-27.4 7.3-28.4 7.6-1 .2-3.3.8-5.1 1.4-1.8.6-4.2 1.2-5.4 1.5-1.1.2-6.9 1.7-12.9 3.4-5.9 1.6-20.1 5.5-31.7 8.6-27.7 7.3-46.5 12.3-54.5 14.6-3.6 1-7.6 2-9 2.3-1.4.2-7.2 1.8-13 3.4-5.8 1.6-14.1 3.9-18.5 5.1-16.2 4.3-57.2 15.3-62.5 16.7-3 .8-6.3 1.7-7.2 1.9-.9.2-5 1.3-9 2.4-4 1.1-10.7 2.9-14.8 4-14.5 3.7-60.6 16.1-65.5 17.5-2.7.9-9.3 2.6-14.5 4-5.2 1.4-23.2 6.2-40 10.7-16.8 4.5-33.4 8.9-36.8 9.8-6.3 1.5-6.4 1.6-5.8 4.6.7 4.4 1.2 5.9 4.1 16.5 1.5 5.2 3 11.1 3.5 13 .4 1.9 5.6 21.3 11.5 43 15.1 56.1 20.2 75.3 22.7 85.2 1.2 4.9 2.7 8.8 3.3 8.8.5 0 6.2-1.4 12.5-3.1 6.3-1.7 12.6-3.3 13.9-3.6 1.4-.2 2.8-.6 3.2-.9.5-.3 7-2.1 14.5-4 7.6-1.9 18.7-4.9 24.8-6.5 6.1-1.7 13.6-3.7 16.6-4.5 15.6-4.1 44.3-11.8 50.4-13.6 3.8-1.1 7.6-2.1 8.5-2.3 1.9-.4 11.6-3 30.1-8 15.5-4.2 31.9-8.5 47-12.6 18.1-4.7 31.1-8.2 78-20.8 25-6.8 46.2-12.4 47-12.6.8-.2 21.8-5.9 46.5-12.5 55.6-15 51.6-14 54-14.5 1.1-.3 9.6-2.5 18.9-5.1 9.3-2.5 17.6-4.7 18.5-4.9.9-.2 16-4.2 33.6-9 35.9-9.7 50.3-13.5 52.5-14 1.9-.4 20.1-5.4 21.7-6 .9-.3.9-1.5-.2-5.2-.8-2.6-6.8-25.1-13.5-49.8-6.6-24.8-16.1-60.1-21-78.5-5-18.5-9-34.1-9-34.8 0-1.7-2-1.4-14 1.9zM848.5 635.5c-10.4 2.9-32 8.7-48 13-15.9 4.3-37.2 10-47.2 12.7-10 2.7-19 5.1-20 5.3-1 .3-9.4 2.5-18.8 5-9.3 2.6-21 5.7-26 7-4.9 1.3-16.6 4.5-26 7-9.3 2.5-17.8 4.8-18.9 5-1 .3-4.4 1.2-7.5 2.1-3.1.9-6.3 1.7-7.1 1.9-1.2.2-8.7 2.2-14.5 3.9-.5.1-3 .8-5.5 1.5s-5.3 1.5-6.2 1.6c-2.2.5-11.5 2.9-26.3 7.1-6.6 1.8-13.1 3.5-14.5 3.8-1.4.2-8.3 2.1-15.5 4-7.1 2-17.9 4.9-24 6.5-16.1 4.4-61.2 16.5-74.5 20.1-6.3 1.7-12.2 3.3-13 3.5-.8.2-15.2 4-32 8.5s-31.2 8.4-32 8.6c-12.7 3.3-21.2 5.6-33.5 8.9-3.3 1-10.7 3-16.5 4.5-28.7 7.6-45.5 12.1-45.6 12.3-.3.2.3 2.6 11.1 42.7 7.5 27.7 13.5 50 16.1 60 8 30.2 12.5 46.9 13.3 49.5.5 1.6 1.7 5.9 2.6 9.5.9 3.6 1.9 6.8 2.1 7.2.2.3 2 .2 4-.4 2-.5 4.4-1.1 5.3-1.3.9-.2 10.2-2.7 20.6-5.5 10.5-2.8 22.2-6 26-7 3.9-1 12.9-3.4 20-5.4 7.2-1.9 32.4-8.6 56-15 23.7-6.3 54.9-14.7 69.5-18.6 14.6-3.9 32.4-8.7 39.5-10.6 7.2-1.9 13.7-3.7 14.5-3.9.8-.2 5.6-1.5 10.5-2.8 5-1.3 15.3-4.1 23-6.1 35.8-9.5 55.8-14.9 60.5-16.3 1.4-.4 3-.8 3.5-.9.6-.1 6-1.5 12-3.2 10.6-2.9 15.9-4.3 18-4.7.6-.2 3-.8 5.5-1.6 2.5-.7 5-1.4 5.5-1.5.6-.1 6.2-1.7 12.5-3.4s12.2-3.2 13-3.4c.9-.2 16.6-4.4 35-9.4 33.7-9 38.7-10.3 40.5-10.7.6-.2 4.4-1.2 8.5-2.3 16.9-4.7 49.3-13.4 50.8-13.7 4.4-.9 38.5-10.5 39-11 .4-.4-6.9-29.2-11.8-46.5-1.8-6.1-14.7-54.4-15.5-57.9-.4-1.7-3.9-14.6-11-41.1-5.5-20.4-6.7-24-7.4-23.9-.3.1-9.1 2.5-19.6 5.4z"/></svg>